<?xml version="1.0" encoding="utf-8"?>
<!-- Generator: Adobe Illustrator 25.2.3, SVG Export Plug-In . SVG Version: 6.00 Build 0)  -->
<svg version="1.1" id="Layer_1" xmlns="http://www.w3.org/2000/svg" xmlns:xlink="http://www.w3.org/1999/xlink" x="0px" y="0px"
	 viewBox="0 0 159 34" style="enable-background:new 0 0 159 34;" xml:space="preserve">
<style type="text/css">
	.st0{fill:#AAAAAA;}
</style>
<g id="Symbols">
	<g id="logo">
		<rect id="Rectangle-path" x="83" class="st0" width="2" height="33"/>
		<path id="Shape" class="st0" d="M97.1,1.6l1.4,3.6h-2.8L97.1,1.6z M96.6,0L93,9h1.1l1.1-2.8h3.6L99.9,9h1.1l-3.6-8.9h-0.9V0z"/>
		<path class="st0" d="M108.6,5.5v4.3h1V5.4c0-1.1-0.9-2-2-2c0,0-0.1,0-0.1,0c-0.8,0-1.5,0.3-2,0.9c-0.4-0.6-1.1-1-1.8-0.9
			c-0.7,0-1.3,0.3-1.8,0.7l-0.1-0.6h-0.9l0.1,1.4v4.8h1V5.5c0.3-0.6,0.9-1.1,1.6-1.2c0.9,0,1.2,0.4,1.2,1.2v4.3h1V5.5
			c0.3-0.6,0.9-1.1,1.6-1.2c0.6-0.1,1.1,0.3,1.2,0.9C108.6,5.3,108.6,5.4,108.6,5.5"/>
		<path class="st0" d="M113.4,4.3c1.1,0,1.6,0.6,1.6,1.8h-3.4C111.8,5,112.4,4.3,113.4,4.3 M113.4,9.9c1.5,0,2.5-0.6,2.6-1.6V8
			l-1.1-0.1v0.2c-0.1,0.6-0.6,0.9-1.6,0.9c-1,0-1.8-0.9-1.8-1.9h4.6V6.6c0-2.1-0.9-3.2-2.7-3.2c-1.7,0-3,1.4-3,3c0,0,0,0.1,0,0.1
			C110.5,8.6,111.7,9.9,113.4,9.9"/>
		<path class="st0" d="M117.2,9.7h1V5.8c0.1-0.9,0.9-1.6,1.8-1.5h0.4l0.4,0.1l0.1-1H120c-0.8,0-1.5,0.3-2,0.8l-0.1-0.7H117l0.2,1.4
			V9.7z"/>
		<rect x="121.6" y="3.5" class="st0" width="1" height="6.3"/>
		<rect x="121.5" y="1.1" class="st0" width="1.2" height="1.2"/>
		<path class="st0" d="M126.8,9.9c1.5,0,2.5-0.6,2.6-1.6V8l-1-0.2V8c-0.1,0.6-0.6,1-1.6,1S125,8,125,6.7s0.7-2.2,1.8-2.2
			c0.9,0,1.5,0.3,1.6,1v0.2l1.1-0.1V5.1c-0.3-1.1-1.4-1.8-2.6-1.7c-1.7,0-3,1.3-3,3c0,0.1,0,0.1,0,0.2c-0.3,1.5,0.7,2.9,2.2,3.2
			C126.4,9.8,126.6,9.9,126.8,9.9"/>
		<path class="st0" d="M132.3,8.9c-0.7,0-1.1-0.4-1.1-1s0.4-0.9,1.4-1.1l1.9-0.2v1.1C134,8.5,133.2,8.9,132.3,8.9z M132.5,6
			c-1,0.1-2.3,0.5-2.3,2c0,1.2,0.9,1.9,2.2,1.9c0.8,0,1.6-0.2,2.2-0.7l0.1,0.6h0.9l-0.1-1.4V5.6c0-1.4-0.9-2.1-2.6-2.1
			s-2.3,0.8-2.5,1.7l-0.1,0.3l1.1,0.1V5.4c0.1-0.5,0.4-0.8,1.4-0.8h0.1c1.1,0,1.5,0.3,1.5,1.2V6H132.5z"/>
		<path class="st0" d="M141.8,9.7V5.4c-0.1-1.2-1-2.1-2.2-2c0,0-0.1,0-0.1,0c-0.7,0-1.5,0.2-2,0.7l-0.1-0.6h-0.9l0.1,1.4v4.8h1V5.5
			c0.3-0.7,1-1.1,1.7-1.2c0.9,0,1.5,0.5,1.5,1.2v4.3H141.8z"/>
		<path class="st0" d="M97.1,20.6h-3v-3.2h3c1.1,0,1.5,0.5,1.5,1.5C98.6,20.4,97.9,20.6,97.1,20.6 M96.9,16.5H94v-3h3
			c0.7,0,1.2,0.2,1.2,1.5C98.4,16,97.9,16.5,96.9,16.5 M96.8,12.6H93v9h3.8c1.4,0,2.8-0.4,2.8-2.6c0.1-0.9-0.3-1.7-1.1-2.1
			c0.5-0.5,0.8-1.2,0.7-1.9C99.3,12.9,98.1,12.6,96.8,12.6"/>
		<path class="st0" d="M102.7,20.7c-0.7,0-1.1-0.4-1.1-0.9s0.4-1,1.4-1.1l1.8-0.2v1.1C104.4,20.3,103.5,20.8,102.7,20.7z
			 M102.8,17.8c-1,0.1-2.3,0.5-2.3,2c0,1.2,0.9,1.9,2.2,1.9c0.8,0,1.6-0.2,2.2-0.7l0.1,0.6h0.9l-0.1-1.4v-2.8c0-1.4-0.9-2.1-2.6-2.1
			s-2.3,0.8-2.5,1.7l-0.1,0.4l1.1,0.1v-0.2c0.1-0.5,0.4-0.8,1.4-0.8h0.1c1.1,0,1.5,0.4,1.5,1.2v0.2L102.8,17.8z"/>
		<path class="st0" d="M109.8,15.2c-0.7,0-1.4,0.2-2,0.7l-0.1-0.6h-0.9l0.1,1.4v4.8h1v-4.2c0.3-0.7,1-1.1,1.7-1.2
			c0.9,0,1.5,0.5,1.5,1.2v4.2h1v-4.4C112.1,16,111.3,15.2,109.8,15.2"/>
		<polygon class="st0" points="118.7,15.3 117.2,15.3 114.3,18 114.3,12.3 113.2,12.3 113.2,21.5 114.3,21.5 114.2,19.4 115.1,18.6 
			117.7,21.5 119,21.5 115.8,18 		"/>
		<path class="st0" d="M121.7,16.1c1.1,0,1.6,0.6,1.6,1.8h-3.4C119.9,16.9,120.8,16.1,121.7,16.1 M118.8,18.4
			c-0.1,1.7,1.2,3.1,2.8,3.2c0,0,0.1,0,0.1,0c1.5,0,2.5-0.6,2.6-1.6l0.1-0.4l-1.1-0.1v0.2c-0.1,0.6-0.6,1-1.6,1
			c-1,0-1.9-0.9-1.8-1.9h4.6v-0.4c0-2.1-0.9-3.2-2.7-3.2c-1.7,0-3,1.4-3,3C118.8,18.3,118.8,18.3,118.8,18.4"/>
		<path class="st0" d="M128.8,16.2l0.4,0.1l0.1-0.9h-0.9c-0.8,0-1.5,0.3-2,0.8l-0.1-0.7h-0.9l0.1,1.4v4.9h1v-3.9
			c0.2-0.9,0.9-1.5,1.8-1.5C128.5,16.1,128.6,16.2,128.8,16.2"/>
		<path class="st0" d="M131.7,18.7c1.4,0.1,1.9,0.2,1.9,0.9s-1,1.1-1.7,1.1s-1.5-0.4-1.6-0.9v-0.2l-1.1,0.1l0.1,0.4
			c0.3,1.1,1.4,1.8,2.6,1.6c1.7,0,2.8-0.7,2.8-2c0-1.5-1.6-1.6-2.6-1.8c-1.5-0.1-1.6-0.2-1.6-0.7c0-1,1.4-1,1.5-1
			c0.9,0,1.5,0.4,1.6,1v0.2l1-0.2v-0.4c-0.3-1.1-1.4-1.8-2.6-1.7c-1.6,0-2.5,0.7-2.5,1.9C129.4,18.5,130.8,18.7,131.7,18.7"/>
		<path class="st0" d="M97.6,29.6h-2.8l1.5-3.7L97.6,29.6z M96.7,24.3h-0.9l-3.6,9.1h1.1l1.1-2.8h3.6l1.1,2.8h1.1L96.7,24.3z"/>
		<path class="st0" d="M103.3,29.6c-1.5-0.1-1.6-0.2-1.6-0.7c0-1,1.2-1,1.5-1c0.9,0,1.5,0.4,1.6,1v0.2l1.1-0.1v-0.4
			c-0.3-1.1-1.4-1.8-2.6-1.6c-1.6,0-2.5,0.7-2.5,1.9c0,1.4,1.5,1.5,2.3,1.6c1.4,0.1,1.8,0.2,1.8,1s-1,1.1-1.7,1.1s-1.5-0.4-1.6-1
			v-0.2l-1.1,0.1l0.1,0.4c0.3,1.1,1.4,1.8,2.6,1.7c1.7,0,2.8-0.7,2.8-2C105.8,30,104.2,29.7,103.3,29.6"/>
		<path class="st0" d="M109.2,29.6c-1.5-0.1-1.6-0.2-1.6-0.7c0-1,1.2-1,1.5-1c0.9,0,1.5,0.4,1.6,1v0.2l1.1-0.1v-0.4
			c-0.3-1.1-1.4-1.8-2.6-1.6c-1.6,0-2.5,0.7-2.5,1.9c0,1.4,1.5,1.5,2.3,1.6c1.3,0.1,1.8,0.2,1.8,1s-1,1.1-1.7,1.1s-1.5-0.4-1.6-1
			v-0.2l-1.1,0.1v0.4c0.3,1.1,1.4,1.8,2.6,1.7c1.7,0,2.8-0.7,2.8-2C111.9,30,110.3,29.7,109.2,29.6"/>
		<path class="st0" d="M115.5,32.5c-1.2,0-1.8-0.8-1.8-2.2s0.6-2.2,1.8-2.2s1.8,0.8,1.8,2.2S116.6,32.5,115.5,32.5 M115.5,27
			c-1.8,0-3,1.2-3,3.2s1.1,3.2,3,3.2s3-1.2,3-3.2S117.3,27,115.5,27"/>
		<path class="st0" d="M122,27.9c0.9,0,1.5,0.4,1.6,1v0.2l1.1-0.1v-0.4c-0.3-1.1-1.4-1.8-2.6-1.6c-1.7,0-3,1.3-3,3
			c0,0.1,0,0.2,0,0.3c-0.1,1.7,1.2,3.1,2.8,3.2c0.1,0,0.1,0,0.2,0c1.5,0,2.5-0.6,2.6-1.6v-0.4l-1.1-0.1v0.2
			c-0.1,0.6-0.6,0.9-1.6,0.9s-1.8-1-1.8-2.2S120.9,27.9,122,27.9"/>
		<rect x="125.8" y="27.1" class="st0" width="1" height="6.3"/>
		<rect x="125.7" y="24.7" class="st0" width="1.2" height="1.2"/>
		<path class="st0" d="M130.2,32.5c-0.7,0-1.1-0.4-1.1-1s0.4-0.9,1.4-1.1l1.9-0.2v1.1C131.9,32.1,131.1,32.6,130.2,32.5z
			 M133.3,29.1c0-1.4-0.9-2.1-2.6-2.1s-2.3,0.8-2.5,1.6l-0.1,0.4l1.1,0.1v-0.2c0.1-0.5,0.4-0.8,1.4-0.8h0.1c1.1,0,1.5,0.4,1.5,1.2
			v0.2l-1.9,0.2c-1,0.1-2.3,0.5-2.3,2c0,1.2,0.9,1.9,2.2,1.9c0.8,0,1.6-0.2,2.2-0.7l0.1,0.6h0.9l-0.1-1.4V29.1z"/>
		<path class="st0" d="M137.8,32.4c-0.2,0.1-0.3,0.1-0.5,0.1c-0.7,0-1.1-0.2-1.1-1.3V28h2v-0.9h-2v-1.8l-1,0.4v1.4h-1.2v1h1.2V31
			c0,1,0,2.5,2.2,2.5c0.3,0,0.5,0,0.7-0.1l0.2-0.1l-0.2-1L137.8,32.4z"/>
		<rect x="139.1" y="24.7" class="st0" width="1.2" height="1.2"/>
		<rect x="139.2" y="27.1" class="st0" width="1" height="6.3"/>
		<path class="st0" d="M144.4,32.5c-1.2,0-1.9-0.8-1.9-2.2s0.6-2.2,1.9-2.2s1.8,0.8,1.8,2.2S145.6,32.5,144.4,32.5 M144.4,27
			c-1.9,0-3,1.2-3,3.2s1.1,3.2,3,3.2s3-1.2,3-3.2S146.3,27,144.4,27"/>
		<path class="st0" d="M151.3,27c-0.7,0-1.4,0.2-2,0.7l-0.1-0.6h-0.9l0.1,1.4v4.9h1v-4.3c0.3-0.7,1-1.1,1.7-1.2
			c0.9,0,1.5,0.5,1.5,1.2v4.3h1V29c-0.1-1.2-1-2.1-2.2-2C151.4,27,151.3,27,151.3,27"/>
		<path class="st0" d="M63.7,31.8c-4.1,0-7.4-3.9-7.4-8.6s3.3-8.5,7.4-8.5s7.4,3.8,7.4,8.5S67.7,31.8,63.7,31.8 M49,31.4
			c-7.8-1.1-16.1-21-24.1-26.2c5.6-3.8,9.9-0.1,12.4,3C42.2,13.6,46.5,23,51.9,29C52.3,30.3,49.9,31.6,49,31.4 M18.9,31.7
			c-4.1,0-7.4-3.9-7.4-8.6s3.3-8.6,7.4-8.6s7.4,3.9,7.4,8.6S23,31.7,18.9,31.7 M75.6,22.7c-0.6-8.3-8.9-9.7-12.7-9.4
			c-3.1,0.2-6.1,1.4-8.5,3.3C50.2,11.3,47,3.2,38.2,1.4c-5.5-1.1-9.9,0.6-14.4,3.2c-4.1-2-8.4-4.3-15.4-2.8C6.3,2.1,1.3,4.5,0.2,7
			c0.2,0.1,0.9,0.3,1,0.1C2.9,4,7.8,2.9,11.1,4c3.6,1.1,8.9,7.6,9.9,9.3c-4.3-0.1-14,0.1-14.4,10.2c0.6,6.1,5.2,9.6,12.7,9.8
			c6.6-0.2,9.4-3.4,11.3-6.9c2.8,3.2,6.8,7,11.1,7.3c6.2,0.8,8.6-1.5,11.1-3.7c3.8,2.5,5.8,3.5,10.6,3.4
			C73,32.9,75.8,27.1,75.6,22.7"/>
		<path class="st0" d="M157.2,30.2c0.9,0,1.6,0.8,1.6,1.7c0,0.9-0.8,1.6-1.7,1.6c-0.9,0-1.6-0.8-1.6-1.6c0-0.9,0.6-1.6,1.5-1.7
			C157.1,30.2,157.1,30.2,157.2,30.2z M157.2,30.4c-0.8,0-1.4,0.6-1.5,1.3s0.6,1.4,1.3,1.5s1.4-0.6,1.5-1.3c0,0,0,0,0-0.1
			C158.6,31.1,158,30.4,157.2,30.4C157.2,30.4,157.2,30.4,157.2,30.4z M156.9,32.8h-0.2v-1.9h0.7c0.5,0,0.7,0.1,0.7,0.6
			c0,0.2-0.2,0.5-0.4,0.5c0,0-0.1,0-0.1,0l0.6,0.8h-0.4l-0.5-0.8H157v0.8H156.9z M156.9,31.7h0.4c0.4,0,0.5-0.1,0.5-0.4
			s-0.1-0.2-0.5-0.2h-0.4V31.7z"/>
	</g>
</g>
</svg>
