<?xml version="1.0" encoding="utf-8"?>
<!-- Generator: Adobe Illustrator 25.2.3, SVG Export Plug-In . SVG Version: 6.00 Build 0)  -->
<svg version="1.1" id="Layer_1" xmlns="http://www.w3.org/2000/svg" xmlns:xlink="http://www.w3.org/1999/xlink" x="0px" y="0px"
	 viewBox="0 0 497.4 90" style="enable-background:new 0 0 497.4 90;" xml:space="preserve">
<style type="text/css">
	.st0{fill:#AAAAAA;}
</style>
<path class="st0" d="M121.4,0c-29.1,0-49,20.5-49,45.4c0,26.2,21.9,44.6,49,44.6c27,0,48.9-18.2,48.9-44.6
	C170.3,20.5,150.2,0,121.4,0z M270.6,12.2h64.2V20h-53.2v23.1h39.9V51h-39.9v25.1h53.2v7.8h-64.2L270.6,12.2z M432.5,12.2h10v63.9
	h54.9v7.8h-64.9V12.2z M228.6,12.2c15.5,0,24.2,7.9,25.1,20.8c0.1,4.4-1.5,16.6-18,21c6.4,9.7,22,30,22,30h-13l-21.7-30.1h-29.5
	v30.1h-10.3V12.2L228.6,12.2z M376.4,12.2h14.1L427,83.9h-12.2l-9.4-18.6h-43.8l-9.3,18.6h-12.3L376.4,12.2z M10,12.2v63.9h54.8v7.8
	H0V12.2L10,12.2z M121,81.1c-20.1,0-36.7-16.2-36.7-35.7C84.3,25.9,100.1,9,121.8,9c21.2,0,36.7,17,36.7,36.4
	C158.5,64.9,141.1,81.1,121,81.1z M400.8,56.4l-17.4-34.3l-17.2,34.3H400.8z M228.4,20.7h-34.7v24.7h33.5c5.5,0,11-1,13.9-5.8
	c1.8-2.9,2.5-7.2,1.4-10.4C240.8,24.4,236.3,20.7,228.4,20.7z M56.5,12.2h10.9L53.9,37.6h-7.4L56.5,12.2z M295.3,10.3l8.7-9.8h18.6
	L295.3,10.3z"/>
</svg>
